<svg width="17" height="17" viewBox="0 0 17 17" fill="none" xmlns="http://www.w3.org/2000/svg">
<g clip-path="url(#clip0)">
<path fill-rule="evenodd" clip-rule="evenodd" d="M15.2898 13.2215C16.2072 11.824 16.6968 10.1809 16.6968 8.5H12.9566C12.9563 9.42771 12.6859 10.3345 12.1795 11.1057C11.6731 11.877 10.9535 12.478 10.1117 12.8329C9.26988 13.1877 8.34361 13.2805 7.45001 13.0994C6.55641 12.9183 5.73562 12.4715 5.0914 11.8154C4.44718 11.1594 4.00847 10.3236 3.83074 9.4137C3.653 8.50382 3.74422 7.5607 4.09287 6.7036C4.44151 5.8465 5.03192 5.11389 5.78944 4.59842C6.54697 4.08294 7.4376 3.80773 8.34873 3.8076V2.5147e-08C6.90642 -0.000112923 5.48868 0.38026 4.23371 1.10404C2.97874 1.82782 1.92935 2.87032 1.18782 4.12992C0.446287 5.38952 0.0379185 6.82325 0.00251575 8.29136C-0.032887 9.75947 0.305884 11.2119 0.985808 12.507C1.66573 13.8022 2.66361 14.8958 3.88219 15.6815C5.10076 16.4671 6.49845 16.9178 7.93903 16.9898C9.3796 17.0617 10.8139 16.7525 12.1022 16.0921C13.3904 15.4317 14.4886 14.4427 15.2898 13.2215Z" fill="#F6F7F8"/>
<path d="M12.9545 3.81042H16.6967V7.62079H12.9545V3.81042Z" fill="#20A4F3"/>
</g>
<defs>
<clipPath id="clip0">
<rect width="16.6968" height="17" fill="white"/>
</clipPath>
</defs>
</svg>
